<svg width="756" height="674" viewBox="0 0 756 674" fill="none" opacity="1" xmlns="http://www.w3.org/2000/svg">
<path d="M380.552 671.396C364.647 671.396 350.884 671.421 337.143 671.396C271.477 671.199 205.811 670.978 140.145 670.732C95.7251 670.559 51.3047 670.338 6.88431 670.116C5.56675 670.116 4.17861 669.944 2.95517 669.501C1.12001 668.812 0.531813 667.311 1.19059 665.366C1.54351 664.332 2.08464 663.372 2.62578 662.412C16.1072 638.267 29.5886 614.146 43.07 590C60.2452 559.283 77.4205 528.541 94.5958 497.824C116.194 459.205 137.793 420.587 159.391 381.944C186.26 333.85 213.129 285.756 239.997 237.662C259.69 202.415 279.406 167.194 299.099 131.948C322.98 89.2437 346.837 46.5397 370.717 3.81105C371.047 3.19572 371.376 2.58039 371.776 2.01428C373.564 -0.619334 375.729 -0.643947 377.611 1.96506C378.082 2.605 378.458 3.29417 378.858 3.98334C404.362 49.0748 429.866 94.1663 455.394 139.233C473.651 171.501 491.956 203.769 510.213 236.062C535.247 280.267 560.257 324.497 585.267 368.727C603.477 400.921 621.711 433.091 639.922 465.285C666.038 511.41 692.13 557.511 718.222 603.636C729.963 624.41 741.703 645.183 753.443 665.957C753.937 666.818 754.479 667.68 754.831 668.59C755.678 670.953 754.549 672.849 752.196 673.144C751.443 673.242 750.667 673.193 749.891 673.193C729.986 673.193 710.082 673.193 690.177 673.144C644.416 672.972 598.654 672.75 552.869 672.553C507.014 672.356 461.135 672.184 415.279 671.938C402.974 671.864 390.669 671.569 380.528 671.396H380.552ZM374.388 100.837C374.035 101.181 373.611 101.452 373.4 101.846C281.618 271.997 189.836 442.173 98.1014 612.349C97.9367 612.669 97.9838 613.112 97.8896 613.875C99.3248 613.9 100.642 613.974 101.936 613.974C162.026 613.777 222.116 613.58 282.23 613.383C345.213 613.186 408.197 612.94 471.157 612.792C504.614 612.694 538.094 612.718 571.55 612.669C596.254 612.62 620.982 612.546 645.686 612.472C647.568 612.472 649.451 612.201 651.498 612.054C651.262 611.168 651.239 610.626 651.027 610.208C559.104 440.598 467.158 270.988 375.211 101.403C375.094 101.181 374.764 101.083 374.388 100.837Z" fill="#3972B8"/>
<path d="M454.926 415.492C453.773 419.554 452.738 423.172 451.726 426.839C449.185 436.02 446.668 445.176 444.15 454.357C443.986 454.923 443.844 455.538 443.562 456.055C442.809 457.36 441.656 457.36 440.856 456.055C440.598 455.637 440.48 455.144 440.292 454.677C425.493 418.987 410.67 383.298 395.871 347.609C389.448 332.127 383.049 316.621 376.626 301.115C376.155 299.958 375.543 298.85 374.72 297.176C373.802 298.678 373.143 299.613 372.602 300.622C365.991 313.347 359.427 326.097 352.839 338.822C340.605 362.426 328.37 386.03 316.159 409.634C305.642 429.965 295.126 450.32 284.585 470.651C279.315 480.816 273.927 490.907 268.657 501.073C267.48 503.362 265.739 504.445 263.41 504.74C262.563 504.863 261.693 504.863 260.822 504.888C245.341 505.06 229.86 505.232 214.402 505.405C214.214 505.405 214.025 505.405 213.814 505.405C210.261 505.282 208.943 503.091 210.449 499.817C211.437 497.651 212.543 495.51 213.625 493.393C224.425 471.955 235.224 450.517 246.023 429.079C261.975 397.402 277.903 365.724 293.831 334.047C303.243 315.366 312.63 296.684 322.041 278.003C338.252 245.809 354.486 213.59 370.72 181.396C370.979 180.854 371.238 180.313 371.567 179.821C373.049 177.605 375.19 177.482 376.837 179.55C377.449 180.313 377.896 181.223 378.32 182.134C395.071 217.873 411.823 253.636 428.575 289.399C437.257 307.908 445.962 326.392 454.667 344.902C464.408 365.651 474.125 386.449 483.912 407.173C486.688 413.031 489.723 418.741 492.641 424.525C493.111 425.461 494.076 426.421 493.253 427.528C492.382 428.734 491.182 428.168 490.076 427.774C479.512 424.033 468.972 420.317 458.408 416.6C457.42 416.255 456.408 416.009 454.949 415.566L454.926 415.492Z" fill="#3972B8"/>
<path d="M425.422 542.103C426.527 540.552 427.28 539.543 427.963 538.485C441.891 517.022 455.819 495.559 469.748 474.096C472.524 469.814 473.159 469.838 475.889 474.17C491.111 498.242 506.263 522.363 521.627 546.336C526.426 553.843 531.367 561.301 537.202 568.021C539.649 570.851 541.86 573.903 544.072 576.955C547.436 581.632 551.201 585.914 555.342 589.828C555.93 590.394 556.448 591.083 556.989 591.699C556.895 591.92 556.824 592.117 556.73 592.338C555.742 592.265 554.707 592.338 553.765 592.068C528.614 585.102 506.404 572.697 488.335 552.883C483.982 548.108 480.359 542.57 476.43 537.377C475.794 536.54 475.206 535.654 474.336 534.399C473.583 535.359 473.018 535.974 472.595 536.688C466.242 547.936 457.89 557.265 447.82 564.944C445.797 566.495 445.585 566.864 447.208 569.054C450.973 574.125 454.902 579.097 458.807 584.019C460.219 585.791 461.843 587.367 463.348 589.09C463.96 589.779 464.454 590.566 465.325 591.748C464.36 591.649 463.96 591.699 463.654 591.551C451.843 586.21 439.821 581.312 428.268 575.405C409.235 565.682 393.683 551.53 382.06 532.897C379.613 528.959 377.613 524.677 375.425 520.542C374.978 519.705 374.602 518.819 373.99 517.514C373.331 518.474 372.861 518.942 372.649 519.532C368.367 531.593 361.708 542.078 353.568 551.604C353.309 551.899 353.097 552.219 352.886 552.563C352.791 552.736 352.768 552.933 352.58 553.499C356.579 556.674 361.426 557.683 366.861 558.52C366.061 559.529 365.614 560.218 365.073 560.809C358.273 568.045 350.345 573.731 342.133 578.949C333.663 584.339 324.864 589.065 315.406 592.314C306.983 595.194 298.301 596.695 289.502 597.827C282.702 598.689 275.926 599.132 269.103 598.959C264.421 598.836 260.539 596.966 257.457 593.274C254.351 589.508 251.975 585.274 249.952 580.819C249.528 579.86 249.034 578.924 248.446 577.718C247.575 578.432 246.917 578.826 246.423 579.392C239.294 587.687 230.235 592.831 220.424 596.769C210.637 600.682 200.755 604.325 190.427 606.319C185.815 607.205 181.11 607.771 176.428 607.894C170.499 608.066 164.546 607.648 158.593 607.426C157.817 607.402 157.064 606.983 156.311 606.762C156.311 606.491 156.264 606.245 156.241 605.974C157.252 605.531 158.217 605.039 159.252 604.694C172.687 600.092 185.062 593.225 197.038 585.496C205.32 580.155 211.978 573.042 217.86 564.919C227.13 552.096 236.823 539.568 246.328 526.916C246.634 526.523 246.94 526.129 247.246 525.735C249.669 522.609 250.187 522.609 252.54 525.932C261.857 538.977 271.15 552.047 280.467 565.116C280.75 565.51 281.032 565.928 281.338 566.322C283.149 568.784 283.196 568.833 285.832 567.528C292.513 564.206 299.148 560.784 305.83 557.461C307.806 556.477 309.265 555.049 310.442 553.08C324.346 529.919 338.298 506.783 352.25 483.671C357.779 474.49 363.308 465.285 368.861 456.129C370.626 453.224 371.896 453.175 373.684 456.129C378.013 463.267 382.272 470.429 386.554 477.591C398.835 498.119 411.14 518.671 423.445 539.198C423.939 540.011 424.528 540.798 425.398 542.103H425.422Z" fill="#3972B8"/>
</svg>
