<?xml version="1.0" encoding="UTF-8"?>
<svg id="Camada_2" data-name="Camada 2" xmlns="http://www.w3.org/2000/svg" viewBox="0 0 159.83 145.48">
  <defs>
    <style>
      .cls-1 {
        fill: #fedd50;
      }

      .cls-1, .cls-2, .cls-3 {
        stroke-width: 0px;
      }

      .cls-2 {
        fill: #c86601;
      }

      .cls-3 {
        fill: #f59311;
      }
    </style>
  </defs>
  <g id="Camada_1-2" data-name="Camada 1">
    <g>
      <g>
        <path class="cls-3" d="M41.16,82.43c1.65-3.19,3.63-6.19,5.44-9.29,3.49-5.96,7.13-11.84,9.83-18.22,1.71-4.04,2.89-8.2,2.82-12.65-.11-6.91-3.65-11.53-9.61-14.55-3.9-1.98-8.18-2.32-12.42-2.85-.55-.07-1.11-.12-1.66-.22-.32-.06-.79.16-.88-.37-.07-.42.26-.63.56-.85,2.86-2.17,6.02-3.76,9.44-4.84,6.66-2.11,13.46-2.5,20.38-1.71,6.42.73,12.41,2.61,17.75,6.31,4.52,3.14,8.22,6.98,9.85,12.43,1.2,4.02.82,8.07.28,12.13-.06.47-.11.95-.11,1.43-.01,1.6.52,2.04,2.08,1.56,2.59-.79,4.86-2.22,7.09-3.7,11-7.31,19.99-16.64,27.47-27.47,2.87-4.15,5.32-8.54,7.61-13.03.42-.82.85-1.64,1.4-2.37.8-1.09,1.68-1.02,2.32.17.95,1.74,1.27,3.69,1.65,5.6,3.73,18.58-4.99,41.69-15.92,53.1-5.6,5.85-12.2,10.28-19.29,14.06-10.8,5.75-22.18,10.21-33.53,14.71-4,1.59-8,3.19-12,4.79-.43.09-.75-.13-1.1-.35-6.45-3.94-12.65-8.24-18.69-12.78-.34-.26-.72-.52-.75-1.03Z"/>
        <path class="cls-2" d="M41.16,82.43c.02.51.4.77.75,1.03,6.04,4.54,12.24,8.84,18.69,12.78.35.21.67.43,1.1.35-.02.22.05.37.25.49,1.95,1.15,3.84,2.4,5.87,3.4,1.61,1.19,3.41,2.05,5.15,3,6.5,3.56,13.13,6.88,19.92,9.85,2.58,1.13,5.11,2.4,7.84,3.18,4,1.83,8.17,3.18,12.35,4.52,5.83,1.87,11.74,3.41,17.85,3.98,3.11.29,6.23.38,9.25-.72,3.64-1.32,5.7-4.71,5.28-8.58-.46-4.13-2.6-7.49-4.88-10.79-.68-.99-1.49-1.88-2.4-2.66-.18-.16-.4-.34-.23-.6.18-.27.45-.11.64,0,1.12.62,2.24,1.23,3.33,1.9,4.26,2.61,8.57,5.18,11.9,9,4.32,4.94,6.64,10.63,5.89,17.27-.6,5.32-3.38,9.3-8.05,11.93-4.09,2.31-8.59,3.16-13.2,3.52-9.58.73-18.98-.52-28.27-2.77-14.5-3.51-27.81-9.78-40.45-17.58-.71-.44-1.43-.88-2.14-1.31-4.66-3.05-9.25-6.19-13.77-9.45-1.61-1.16-3.07-2.51-4.83-3.45-1.78-1.57-3.6-3.09-5.61-4.36-.08-.13-.14-.29-.25-.38-2.21-1.86-4.39-3.75-6.65-5.54-1.3-1.03-2.35-2.36-3.83-3.15-1.76-2.02-3.87-3.68-5.77-5.56-8.25-8.14-15.83-16.82-21.55-26.98-2.36-4.19-4.25-8.56-5.08-13.36-1.12-6.55,1.72-12.04,7.75-14.79,4.27-1.95,8.79-2.64,13.42-2.52,9.13.23,17.76,2.44,25.78,6.88.63.35,1.86.67,1.59,1.32-.35.84-1.33.02-1.98-.18-4.7-1.46-9.49-2.53-14.39-2.99-4.5-.42-8.86.09-12.9,2.29-4.07,2.22-5.43,5.28-4.35,9.81,1.08,4.52,3.51,8.38,6.22,12.05,5.34,7.22,11.85,13.29,18.85,18.86.26.2.48.59.92.33Z"/>
        <path class="cls-1" d="M100.71,116.51c-2.73-.78-5.25-2.05-7.84-3.18-6.79-2.97-13.42-6.29-19.92-9.85-1.74-.95-3.54-1.81-5.15-3,4.43-2.03,9.08-3.46,13.75-4.8,7.44-2.13,14.93-4.07,22.02-7.25,9.1-4.07,17.45-9.33,25.16-15.63,6.75-5.52,12.79-11.7,17.45-19.13,3.71-5.91,6.38-12.31,8.8-18.83.29-.78.59-1.57.92-2.33.12-.28.3-.64.67-.59.37.05.42.43.5.74.48,2.04.53,4.13.59,6.19.35,12.53-1.26,24.77-5.64,36.56-3.73,10.05-10.28,18.04-18.52,24.72-7.08,5.74-15.12,9.79-23.53,13.16-3.04,1.22-6.11,2.33-9.27,3.2Z"/>
        <path class="cls-3" d="M106.06,34.76c-5.7-.06-10.4-1.57-14.26-5.2-5.6-5.27-6.55-13.35-2.41-19.92C95.36.15,109.15-2.93,118.61,3.1c8.51,5.43,10.18,16.28,3.65,24.01-4.35,5.14-10.02,7.46-16.19,7.65Z"/>
      </g>
      <path class="cls-1" d="M48.98,110.71c1.76.95,3.23,2.3,4.83,3.45,4.52,3.25,9.11,6.4,13.77,9.45-11.93,3.42-23.8,7-34.98,12.49-3.42,1.68-6.71,3.55-9.24,6.49-.05.06-.11.12-.17.17-.29.26-.59.69-1.01.45-.5-.29-.21-.83-.07-1.19.4-1.04.87-2.06,1.35-3.06,3.6-7.46,8.52-13.95,14.52-19.64,3.11-2.95,6.45-5.6,9.97-8.04.33-.23.62-.51,1.04-.57Z"/>
      <path class="cls-3" d="M32.64,97.27c1.48.8,2.53,2.13,3.83,3.15,2.26,1.79,4.44,3.68,6.65,5.54.11.09.17.25.25.38-5.46,3.94-10.43,8.42-14.82,13.53-2.24,2.6-4.39,5.27-6.59,7.91-.36.43-.73.85-1.12,1.24-.36.35-.73.87-1.31.57-.56-.29-.43-.91-.36-1.41.32-2.26,1.06-4.41,1.86-6.54,3.18-8.45,7.27-16.47,11.62-24.36Z"/>
    </g>
  </g>
</svg>